<svg xmlns="http://www.w3.org/2000/svg" width="512" height="512" id="car"><path fill="#00AFFE" d="M185.398 221.255C185.631 221.347 185.487 221.267 185.737 221.617C179.041 233.875 170.354 245.751 163.366 258.544C152.519 259.078 141.687 257.76 130.859 257.8C130.092 257.757 129.828 257.922 129.261 257.363L129.823 257.093L129.704 256.844C135.348 248.22 175.46 224.56 185.398 221.255Z" transform="scale(.8)"></path><path fill="#FE9501" d="M526.495 357.932C535.233 355.382 561.34 359.805 574.545 357.782C576.701 359.648 578.122 361.768 579.597 364.187C581.954 369.726 582.841 383.877 575.693 386.875C570.484 389.06 535.397 388.184 527.893 387.741C531.497 381.739 530.034 370.771 528.506 364.324C527.947 362.15 527.235 360.051 526.495 357.932Z" transform="scale(.8)"></path><path fill="#FE7100" d="M526.495 357.932C535.233 355.382 561.34 359.805 574.545 357.782C576.701 359.648 578.122 361.768 579.597 364.187C574.201 367.433 533.072 361.986 528.506 364.324C527.947 362.15 527.235 360.051 526.495 357.932Z" transform="scale(.8)"></path><path fill="#00AFFE" d="M267.327 209.831C269.551 209.753 271.766 209.844 273.988 209.921 273.487 226.912 273.152 245.504 274.025 262.472 243.482 261.759 212.947 259.751 182.4 259.003 178.685 258.621 174.884 258.544 171.152 258.335 175.8 249.046 188.389 226.317 194.989 219.387 203.705 210.235 250.734 210.4 267.327 209.831zM299.912 209.523C330.513 210.132 347.8 207.456 375.958 223.903 385.872 229.694 408.459 250.445 418.469 259.941 425.518 266.629 405.628 264.99 401.576 265.136 398.213 265.3 394.693 264.974 391.312 264.96L367.299 264.943C339.881 264.944 308.631 264.825 281.209 262.83 280.738 245.174 281.095 227.428 281.131 209.762 287.386 209.547 293.654 209.57 299.912 209.523z" transform="scale(.8)"></path><path d="M437.365 359.525C440.575 350.612 444.169 340.676 453.718 336.887C465.849 332.074 497.456 330.759 509.527 336.158C518.43 340.14 523.181 349.233 526.495 357.932C527.235 360.051 527.947 362.15 528.506 364.324C530.034 370.771 531.497 381.739 527.893 387.741C526.095 389.072 525.456 394.854 524.549 397.066C509.604 433.528 457.987 436.773 440.417 400.561C439.123 397.895 437.317 389.75 435.659 388.368C433.125 383.186 434.807 368.966 436.172 363.424C436.446 362.114 436.957 360.803 437.365 359.525Z" transform="scale(.8)"></path><path fill="#fff" d="M477.855 354.486C515.877 350.849 519.796 401.578 486.262 407.733C450.929 414.881 441.423 359.088 477.855 354.486Z" transform="scale(.8)"></path><path fill="#FE9501" d="M82.0758 292.606C97.9348 289.591 110.258 266.389 121.678 264.598C129.358 263.394 158.299 264.797 167.225 265.034L324.774 270.399C348.01 270.898 371.088 272.076 394.36 271.011C404.596 270.542 419.636 268.429 429.413 269.491C434.834 270.081 440.206 272.387 445.651 273.248C464.753 276.268 563.752 291.428 568.146 314.239C568.55 316.337 567.979 318.367 567.526 320.406C567.409 328.168 567.457 337.176 569.5 344.672C570.693 348.325 571.672 355.247 574.545 357.782C561.34 359.805 535.233 355.382 526.495 357.932C523.181 349.233 518.43 340.14 509.527 336.158C497.456 330.759 465.849 332.074 453.718 336.887C444.169 340.676 440.575 350.612 437.365 359.525C436.957 360.803 436.446 362.114 436.172 363.424C434.807 368.966 433.125 383.186 435.659 388.368C430.727 388.705 425.379 388.103 420.396 388.095L225.561 388.074C218.858 388.072 212.15 387.915 205.464 388.486L204.485 387.618L204.079 387.671C202.813 390.472 202.338 393.825 201.086 396.804C184.919 435.259 132.39 435.996 117.099 400.236C115.637 396.816 114.595 392.757 112.563 389.654C98.3158 392.286 82.1225 387.257 72.3207 376.623C59.931 363.181 61.6967 345.859 62.3351 329.02C63.6047 328.744 64.819 328.416 66.0511 328.004C65.2373 323.74 65.9491 301.954 66.602 297.206C67.6219 289.789 76.6053 291.587 82.0758 292.606Z" transform="scale(.8)"></path><path fill="#FD0000" d="M311.51 291.054C317.659 291.04 324.291 290.457 330.385 291.045 334.432 291.435 333.837 296.589 330.349 297.453 325.991 297.596 314.211 298.63 310.705 297.16 307.506 295.818 307.443 291.557 311.51 291.054zM192.644 290.138C198.229 290.063 204.021 289.529 209.572 290.074 210.684 297.322 207.054 296.649 201.094 296.565 198.017 296.575 179.936 299.235 183.399 291.28 185.557 289.57 189.981 290.187 192.644 290.138zM66.0511 328.004C65.2373 323.74 65.9491 301.954 66.602 297.206 67.6219 289.789 76.6053 291.587 82.0758 292.606 84.3856 301.062 90.5792 311.1 85.0264 321.324 81.0739 328.602 72.8259 326.944 66.0511 328.004zM569.5 344.672C557.159 345.183 536.468 343.216 534.621 327.371 534.314 324.731 534.646 320.456 536.376 318.37 538.679 315.591 563.736 317.052 567.526 320.406 567.409 328.168 567.457 337.176 569.5 344.672z" transform="scale(.8)"></path><path fill="#FE7100" d="M202.376 359.678C209.602 359.908 216.947 359.533 224.193 359.529L437.365 359.525C436.957 360.803 436.446 362.114 436.172 363.424C432.98 362.422 413.601 363.774 409.169 363.901L374.402 364.606C333.295 365.15 292.14 364.712 251.029 364.792L220.464 364.655C215.061 364.618 209.194 364.14 203.86 364.871C203.469 363.11 202.91 361.4 202.376 359.678Z" transform="scale(.8)"></path><path fill="#FE9501" d="M203.86 364.871C209.194 364.14 215.061 364.618 220.464 364.655L251.029 364.792C292.14 364.712 333.295 365.15 374.402 364.606L409.169 363.901C413.601 363.774 432.98 362.422 436.172 363.424C434.807 368.966 433.125 383.186 435.659 388.368C430.727 388.705 425.379 388.103 420.396 388.095L225.561 388.074C218.858 388.072 212.15 387.915 205.464 388.486C206.207 380.518 205.827 372.657 203.86 364.871Z" transform="scale(.8)"></path><path d="M112.563 389.654C107.136 377.273 111.628 362.817 117.017 351.256C123.184 338.021 132.394 334.031 146.199 332.924C171.592 330.889 193.006 333.821 202.376 359.678C202.91 361.4 203.469 363.11 203.86 364.871C205.827 372.657 206.207 380.518 205.464 388.486L204.485 387.618L204.079 387.671C202.813 390.472 202.338 393.825 201.086 396.804C184.919 435.259 132.39 435.996 117.099 400.236C115.637 396.816 114.595 392.757 112.563 389.654Z" transform="scale(.8)"></path><path fill="#fff" d="M155.857 354.18C191.159 351.341 197.574 401.313 161.563 408.048L161.178 408.103C126.434 412.896 118.32 358.687 155.857 354.18Z" transform="scale(.8)"></path></svg>